<svg xmlns="http://www.w3.org/2000/svg" width="26" height="22"><path fill="#ff5816" d="M11.668 19.91A2.1 2.1 0 019.558 22a2.1 2.1 0 01-2.109-2.09 2.1 2.1 0 012.11-2.09 2.1 2.1 0 012.109 2.09zm9.207 0a2.1 2.1 0 01-2.11 2.09 2.1 2.1 0 01-2.11-2.09 2.1 2.1 0 012.11-2.09 2.1 2.1 0 012.11 2.09zM25.23 8.357l-2.595 7.634s-.212 1.134-1.31 1.134H8.235c-1.305 0-1.36-1.423-1.36-1.423L5.231 3.5 1.017 2.435a1.173 1.173 0 01-.855-1.428A1.186 1.186 0 011.603.16L6.6 1.422c.471.12.821.513.882.991l.75 6.047.787 6.206h11.845l.616-2.056-9.93-.004a.977.977 0 01-.98-.973c0-.536.439-.972.98-.972l10.511-.002.656-2.199-10.338.001c-.584 0-1.058-.47-1.058-1.048 0-.579.474-1.048 1.058-1.048l11.685.001c1.936 0 1.167 1.992 1.167 1.992z"/></svg>