<svg xmlns="http://www.w3.org/2000/svg" width="15" height="20"><path fill="#499c54" d="M.117 10.697a7.893 7.893 0 01.245-3.013C1.242 4.558 4 2.26 7.274 2.218V.174C7.274.06 7.41 0 7.5.069l4.036 3.09c.066.053.066.158 0 .207l-4.032 3.09c-.094.069-.226.007-.226-.106V4.31c-2.152.036-3.99 1.42-4.78 3.374a5.634 5.634 0 00.744 5.544 1.075 1.075 0 01-.19 1.5.985.985 0 01-1.394-.203 7.669 7.669 0 01-1.541-3.828zm11.84-5.425c.44-.337 1.05-.244 1.393.202a7.625 7.625 0 011.537 3.829 7.969 7.969 0 01-.245 3.012c-.876 3.13-3.64 5.43-6.912 5.466v2.044c0 .114-.133.175-.226.106l-4.032-3.09c-.067-.049-.067-.154 0-.207l4.036-3.09c.09-.069.225-.008.225.105v2.04c2.153-.032 3.99-1.419 4.78-3.374a5.67 5.67 0 00.409-2.408 5.546 5.546 0 00-1.153-3.135 1.078 1.078 0 01.187-1.5z"/></svg>