<svg xmlns="http://www.w3.org/2000/svg" width="24" height="24"><path d="M14.89 23.654C7.523 27.021-3.912 4.794 3.289 1.039L5.396 0l3.492 6.817-2.082 1.026c-2.189 1.174 2.37 10.08 4.609 8.994.091-.041 2.057-1.007 2.064-1.011L17 22.621c-.008.004-1.989.978-2.11 1.033zm-1.538-13.409l2.917.87a3.03 3.03 0 00-.24-2.317 3.033 3.033 0 00-1.808-1.469l-.869 2.916zm1.804-6.058a6.302 6.302 0 013.756 3.051 6.3 6.3 0 01.498 4.813l-1.795-.535a4.434 4.434 0 00-.352-3.387 4.422 4.422 0 00-2.643-2.146l.536-1.796zM16.106 1a9.61 9.61 0 015.729 4.656A9.61 9.61 0 0122.596 13l-1.84-.548a7.709 7.709 0 00-.608-5.882 7.704 7.704 0 00-4.591-3.729L16.106 1z"/></svg>