<svg xmlns="http://www.w3.org/2000/svg" width="20" height="21" viewBox="0 0 20 21"><g><g><path fill="#fff" d="M19.48 12.607c0 .648-.166 1.254-.496 1.817.026.177.04.358.04.543 0 .85-.261 1.598-.782 2.246.009 1.17-.36 2.093-1.107 2.77-.746.678-1.731 1.016-2.955 1.016H12.5c-.834 0-1.656-.094-2.468-.283a30.785 30.785 0 0 1-2.819-.827c-1.007-.336-1.605-.505-1.797-.505h-3.75c-.46 0-.852-.158-1.178-.473A1.533 1.533 0 0 1 0 17.769V9.692c0-.446.163-.827.488-1.142a1.633 1.633 0 0 1 1.179-.473h3.567c.313-.203.907-.855 1.784-1.957.504-.63.968-1.17 1.394-1.615.208-.21.362-.57.462-1.079.1-.51.232-1.041.397-1.596.165-.556.434-1.01.807-1.364A1.68 1.68 0 0 1 11.25 0c.73 0 1.384.136 1.966.41.582.273 1.025.7 1.329 1.28.303.581.455 1.363.455 2.348 0 .782-.208 1.59-.625 2.423h2.292c.903 0 1.684.32 2.344.959.66.64.989 1.393.989 2.26 0 .748-.212 1.434-.638 2.057.078.277.117.567.117.87zM3.332 16.961a.765.765 0 0 0-.247-.568.814.814 0 0 0-.586-.24c-.226 0-.42.08-.586.24a.764.764 0 0 0-.247.568c0 .219.082.408.247.568.165.16.36.24.586.24.226 0 .421-.08.586-.24a.765.765 0 0 0 .247-.568zm15-7.269c0-.429-.169-.805-.507-1.13-.339-.323-.725-.485-1.16-.485h-4.583c0-.488.209-1.16.625-2.013.417-.854.625-1.529.625-2.026 0-.824-.138-1.434-.416-1.83-.278-.395-.834-.593-1.667-.593-.226.22-.39.577-.495 1.073a22.409 22.409 0 0 1-.397 1.584c-.16.56-.419 1.02-.775 1.382A22.187 22.187 0 0 0 8.281 7.18a26.744 26.744 0 0 1-.86 1.054 7.192 7.192 0 0 1-.52.556c-.156.147-.323.296-.501.448a2.236 2.236 0 0 1-.521.341c-.17.075-.323.113-.462.113H5v8.077h.417c.113 0 .25.012.41.037a5.965 5.965 0 0 1 .924.221 21.083 21.083 0 0 1 .918.303c.209.071.335.115.378.133 1.832.614 3.316.92 4.453.92h1.576c1.666 0 2.5-.702 2.5-2.106 0-.22-.022-.455-.065-.708.26-.134.466-.355.618-.662.152-.307.228-.616.228-.927 0-.311-.078-.602-.234-.871.46-.42.69-.921.69-1.501 0-.211-.044-.444-.13-.701a1.696 1.696 0 0 0-.326-.6c.278-.007.51-.205.697-.592.186-.388.28-.728.28-1.023z"/></g></g></svg>